# xmcd CD database file
# Copyright (C) 1996 Ti Kan
#
# Track frame offsets:
# 	150
# 	14212
# 	27002
# 	42797
# 	53437
# 	65690
# 	80645
# 	96780
# 	110872
# 	131157
# 	147912
# 	160567
#
# Disc length: 2340 seconds
#
# Revision: 1
# Processed by: cddbd v1.4b41PL1 Copyright (c) Steve Scherf et al.
# Submitted via: DiscPlay 3.4.1
#
DISCID=a209220c
DTITLE=Bill Anderson - Best Of Bill Anderson
DYEAR=1900
DGENRE=
TTITLE0=Deck Of Cards
TTITLE1=Still
TTITLE2=Mama Sang A Song
TTITLE3=I Get The Fever
TTITLE4=My Life (Throw It Away If I Want To)
TTITLE5=Green, Green Grass Of Home
TTITLE6=Detroit City
TTITLE7=Unicorn
TTITLE8=I Wonder If God Likes Country Music
TTITLE9=Southern Fried
TTITLE10=Thank You Darling
TTITLE11=Mr. Peepers
EXTD=
EXTT0=
EXTT1=
EXTT2=
EXTT3=
EXTT4=
EXTT5=
EXTT6=
EXTT7=
EXTT8=
EXTT9=
EXTT10=
EXTT11=
PLAYORDER=
